<svg version="1.1" id="SVGLogo" xmlns="http://www.w3.org/2000/svg" xmlns:xlink="http://www.w3.org/1999/xlink" x="0px" y="0px" width="72px" height="34px" viewBox="0 0 520.051 249.132" style="enable-background:new 0 0 520.051 249.132;" xml:space="preserve"><style>#SVGLogo.bigger{width:200px}#SVGLogo.smaller{width:120px}</style><g>
<path style="fill:#FFFFFF;" d="M219.396,40.876c-30.634,0-55.324,24.818-55.324,55.326v100.513h20.26V96.203
c0-19.368,15.694-35.068,35.063-35.068V40.876z M24.437,127.603c1.521,14.173,6.966,26.204,16.46,36.325
c11.142,12.034,25.063,18.112,41.521,18.112c12.155,0,22.791-3.044,32.027-8.997c9.244-5.945,16.333-14.305,21.144-25.064h22.029
c-6.077,16.965-15.446,30.004-28.485,39.245c-12.91,9.247-28.105,13.929-45.701,13.929c-22.534,0-41.649-8.102-57.096-24.065
c-13.545-13.912-21.269-30.499-22.914-49.484H24.437z M135.589,88.734c-6.202-11.271-13.673-19.623-22.409-25.067
c-8.86-5.442-19.371-8.228-31.52-8.228c-16.077,0-29.753,6.076-40.889,18.356c-8.865,9.622-14.182,21.016-16.082,34.184H3.678
C5.829,89.745,13.55,74.047,26.59,60.626c15.696-15.949,34.815-24.051,57.476-24.051c16.836,0,31.776,4.557,44.559,13.672
c12.915,9.115,22.536,22.029,28.994,38.487H135.589z M225.978,196.716V40.876h19.879v155.839H225.978z M252.565,147.728h20.514
v0.504c0,9.751,2.783,17.852,8.351,24.182c5.576,6.325,12.536,9.627,20.762,9.627c7.723,0,14.306-2.539,19.496-7.352
c5.19-4.939,7.723-11.146,7.723-18.608c0-7.471-2.021-13.417-6.079-17.978c-4.176-4.547-11.514-8.856-22.406-12.779
c-17.215-6.205-28.484-12.413-33.802-18.867c-5.317-6.33-7.974-14.938-7.974-25.824c0-12.155,4.427-22.535,13.292-30.892
c8.863-8.608,19.496-12.79,32.03-12.79c13.418,0,23.925,3.674,31.774,11.271c7.854,7.596,12.024,18.101,12.536,31.649h-21.267
c-0.513-7.468-2.916-13.164-7.094-17.217c-4.176-4.05-9.871-6.08-17.214-6.08c-6.458,0-11.9,2.153-16.201,6.589
c-4.435,4.428-6.583,9.873-6.583,16.454c0,4.557,0.881,8.481,2.65,11.648c1.902,3.164,4.814,5.949,8.997,8.611
c3.664,2.276,9.239,4.555,16.444,6.706c7.219,2.28,12.031,3.804,14.563,4.813c9.745,4.173,16.839,9.751,21.393,16.585
c4.695,6.953,6.961,15.697,6.961,26.33c0,13.416-4.682,24.554-14.047,33.415c-9.366,8.745-21.265,13.166-35.572,13.166
c-14.562,0-26.33-4.804-35.317-14.433C257.629,176.842,253.069,163.928,252.565,147.728L252.565,147.728z M358.02,40.876h19.621
v25.572c5.696-8.856,13.803-15.823,24.31-21.016c10.506-5.316,21.775-7.971,33.676-7.971c23.545,0,43.041,7.848,58.487,23.544
c15.312,15.569,23.035,35.068,23.035,58.49c0,22.916-7.59,42.161-22.783,57.858c-15.312,15.697-34.312,23.538-57.223,23.538
c-12.652,0-24.048-2.533-34.187-7.464c-10.129-4.805-18.605-12.024-25.315-21.398v10.766v23.294v41.014H358.02v-119.5h20.26
c1.894,13.67,7.463,25.575,16.964,35.816c11.645,12.543,25.566,18.872,41.396,18.872c16.326,0,30.38-5.952,42.027-17.984
c11.775-11.898,17.603-26.582,17.603-43.923c0-18.232-5.956-33.55-17.728-45.833c-11.647-12.404-25.952-18.479-42.672-18.479
c-15.312,0-28.982,6.201-40.627,18.608c-9.375,9.748-14.942,20.889-16.84,33.298H358.02V40.876z"></path>
<rect x="225.978" y="1" style="fill:#57C7F3;" width="19.879" height="19.875"></rect>
</g>
</svg>